# xmcd CD database file generated by OrangeCD 5.2
#
# Track frame offsets:
#	150
#	13487
#	26837
#	41900
#	52800
#	61900
#	76062
#	90112
#	102712
#	110362
#	119175
#	131762
#	142812
#	154987
#	168112
#	179950
#
# Disc length: 2538 seconds
#
# Revision: 1
# Processed by: cddbd v1.5.1PL0 Copyright (c) Steve Scherf et al.
# Submitted via: OrangeCD 5.2
#
DISCID=de09e810
DTITLE=Sven-Ingvars - På festplatsen
DYEAR=1991
DGENRE=Danseband
TTITLE0=Luffarvisa
TTITLE1=Då börjar livets vår
TTITLE2=Skräddarvisan
TTITLE3=Jämtlandsjazzen
TTITLE4=Kväsarvalsen
TTITLE5=E fin vise
TTITLE6=Den skrattande saxofonen
TTITLE7=Ärtor och fläsk
TTITLE8=Mammas paket
TTITLE9=Guitar Boogie
TTITLE10=Sjömanjul på Hawaii
TTITLE11=Kullerullvisan
TTITLE12=Corrine Corrina
TTITLE13=Flickan och hårbandet
TTITLE14=Hm... du är så underbar
TTITLE15=På festplatsen
EXTD=
EXTT0=
EXTT1=
EXTT2=
EXTT3=
EXTT4=
EXTT5=
EXTT6=
EXTT7=
EXTT8=
EXTT9=
EXTT10=
EXTT11=
EXTT12=
EXTT13=
EXTT14=
EXTT15=
PLAYORDER=
